<svg xmlns="http://www.w3.org/2000/svg" viewBox="0 0 520 300" role="img" aria-label="Doppia evidenza: autovalutazione confrontata con il comportamento reale">
  
  
  <path d="M40,150 L130,140 L220,120 L310,110 L400,95 L480,90&#xA;           L480,100 L400,140 L310,120 L220,170 L130,150 L40,180 Z" fill="#CF7556" opacity="0.08"></path>
  
  <polyline points="40,180 130,150 220,170 310,120 400,140 480,100" fill="none" stroke="#1B2A40" stroke-width="2" stroke-linecap="round" stroke-linejoin="round"></polyline>
  
  <polyline points="40,150 130,140 220,120 310,110 400,95 480,90" fill="none" stroke="#B85C3A" stroke-width="2" stroke-dasharray="6 6" stroke-linecap="round" stroke-linejoin="round"></polyline>
  
  <g stroke="#D9D0BC" stroke-width="1" stroke-dasharray="2 3">
    <line x1="220" y1="120" x2="220" y2="170"></line>
    <line x1="40" y1="150" x2="40" y2="180"></line>
  </g>
  
  <g fill="#FBF8F2" stroke="#1B2A40" stroke-width="1.6">
    <circle cx="40" cy="180" r="4.5"></circle>
    <circle cx="130" cy="150" r="4.5"></circle>
    <circle cx="220" cy="170" r="4.5"></circle>
    <circle cx="310" cy="120" r="4.5"></circle>
    <circle cx="400" cy="140" r="4.5"></circle>
    <circle cx="480" cy="100" r="4.5"></circle>
  </g>
  
  <g fill="#CF7556">
    <circle cx="40" cy="150" r="4"></circle>
    <circle cx="130" cy="140" r="4"></circle>
    <circle cx="220" cy="120" r="4"></circle>
    <circle cx="310" cy="110" r="4"></circle>
    <circle cx="400" cy="95" r="4"></circle>
    <circle cx="480" cy="90" r="4"></circle>
  </g>
</svg>