<svg xmlns="http://www.w3.org/2000/svg" viewBox="0 0 560 472" role="img" aria-label="Matrice delle competenze del team: persone per competenza, livello a colori">
  <defs>
    <filter id="matrixShadow" x="-20%" y="-20%" width="140%" height="140%">
      <feDropShadow dx="0" dy="16" stdDeviation="20" flood-color="#0E1A2B" flood-opacity="0.10"></feDropShadow>
    </filter>
  </defs>

  <rect x="20" y="16" width="520" height="440" fill="#FFFFFF" stroke="#D9D0BC" stroke-width="1" filter="url(#matrixShadow)"></rect>

  
  <text x="52" y="56" font-family="&#39;Space Grotesk&#39;,sans-serif" font-weight="600" font-size="18" letter-spacing="-0.2" fill="#0E1A2B">Matrice competenze</text>
  <text x="52" y="75" font-family="&#39;JetBrains Mono&#39;,monospace" font-size="10" letter-spacing="1.2" fill="#6F7E96">5 PERSONE · 6 AREE · LIVELLO A COLORI</text>

  
  <g font-family="&#39;JetBrains Mono&#39;,monospace" font-size="9.5" letter-spacing="0.6" fill="#2E3F58" text-anchor="middle">
    <text x="193" y="108">COM</text>
    <text x="251" y="108">EMP</text>
    <text x="309" y="108">CRI</text>
    <text x="367" y="108">TEA</text>
    <text x="425" y="108">DEC</text>
    <text x="483" y="108">ADA</text>
  </g>
  <line x1="52" y1="118" x2="508" y2="118" stroke="#ECE6D8" stroke-width="1"></line>

  
  <g font-family="&#39;Space Grotesk&#39;,sans-serif">
    

    
    <text x="52" y="151" font-weight="600" font-size="13" fill="#0E1A2B">M. Bianchi</text>
    <rect x="168" y="132" width="50" height="38" fill="#2D5F73"></rect><text x="193" y="156" text-anchor="middle" font-family="&#39;JetBrains Mono&#39;,monospace" font-size="11" font-weight="600" fill="#FFFFFF">4,3</text>
    <rect x="226" y="132" width="50" height="38" fill="#2D5F73"></rect><text x="251" y="156" text-anchor="middle" font-family="&#39;JetBrains Mono&#39;,monospace" font-size="11" font-weight="600" fill="#FFFFFF">4,1</text>
    <rect x="284" y="132" width="50" height="38" fill="#4F7A53"></rect><text x="309" y="156" text-anchor="middle" font-family="&#39;JetBrains Mono&#39;,monospace" font-size="11" font-weight="600" fill="#FFFFFF">3,9</text>
    <rect x="342" y="132" width="50" height="38" fill="#4F7A53"></rect><text x="367" y="156" text-anchor="middle" font-family="&#39;JetBrains Mono&#39;,monospace" font-size="11" font-weight="600" fill="#FFFFFF">3,6</text>
    <rect x="400" y="132" width="50" height="38" fill="#C68A2E"></rect><text x="425" y="156" text-anchor="middle" font-family="&#39;JetBrains Mono&#39;,monospace" font-size="11" font-weight="600" fill="#FFFFFF">2,8</text>
    <rect x="458" y="132" width="50" height="38" fill="#4F7A53"></rect><text x="483" y="156" text-anchor="middle" font-family="&#39;JetBrains Mono&#39;,monospace" font-size="11" font-weight="600" fill="#FFFFFF">3,4</text>

    
    <text x="52" y="207" font-weight="600" font-size="13" fill="#0E1A2B">G. Rossi</text>
    <rect x="168" y="188" width="50" height="38" fill="#4F7A53"></rect><text x="193" y="212" text-anchor="middle" font-family="&#39;JetBrains Mono&#39;,monospace" font-size="11" font-weight="600" fill="#FFFFFF">3,8</text>
    <rect x="226" y="188" width="50" height="38" fill="#2D5F73"></rect><text x="251" y="212" text-anchor="middle" font-family="&#39;JetBrains Mono&#39;,monospace" font-size="11" font-weight="600" fill="#FFFFFF">4,4</text>
    <rect x="284" y="188" width="50" height="38" fill="#C68A2E"></rect><text x="309" y="212" text-anchor="middle" font-family="&#39;JetBrains Mono&#39;,monospace" font-size="11" font-weight="600" fill="#FFFFFF">3,1</text>
    <rect x="342" y="188" width="50" height="38" fill="#4F7A53"></rect><text x="367" y="212" text-anchor="middle" font-family="&#39;JetBrains Mono&#39;,monospace" font-size="11" font-weight="600" fill="#FFFFFF">4,0</text>
    <rect x="400" y="188" width="50" height="38" fill="#B0473A"></rect><text x="425" y="212" text-anchor="middle" font-family="&#39;JetBrains Mono&#39;,monospace" font-size="11" font-weight="600" fill="#FFFFFF">2,5</text>
    <rect x="458" y="188" width="50" height="38" fill="#C68A2E"></rect><text x="483" y="212" text-anchor="middle" font-family="&#39;JetBrains Mono&#39;,monospace" font-size="11" font-weight="600" fill="#FFFFFF">3,0</text>

    
    <text x="52" y="263" font-weight="600" font-size="13" fill="#0E1A2B">A. Ferri</text>
    <rect x="168" y="244" width="50" height="38" fill="#2D5F73"></rect><text x="193" y="268" text-anchor="middle" font-family="&#39;JetBrains Mono&#39;,monospace" font-size="11" font-weight="600" fill="#FFFFFF">4,5</text>
    <rect x="226" y="244" width="50" height="38" fill="#4F7A53"></rect><text x="251" y="268" text-anchor="middle" font-family="&#39;JetBrains Mono&#39;,monospace" font-size="11" font-weight="600" fill="#FFFFFF">3,7</text>
    <rect x="284" y="244" width="50" height="38" fill="#C68A2E"></rect><text x="309" y="268" text-anchor="middle" font-family="&#39;JetBrains Mono&#39;,monospace" font-size="11" font-weight="600" fill="#FFFFFF">2,9</text>
    <rect x="342" y="244" width="50" height="38" fill="#4F7A53"></rect><text x="367" y="268" text-anchor="middle" font-family="&#39;JetBrains Mono&#39;,monospace" font-size="11" font-weight="600" fill="#FFFFFF">3,5</text>
    <rect x="400" y="244" width="50" height="38" fill="#2D5F73"></rect><text x="425" y="268" text-anchor="middle" font-family="&#39;JetBrains Mono&#39;,monospace" font-size="11" font-weight="600" fill="#FFFFFF">4,2</text>
    <rect x="458" y="244" width="50" height="38" fill="#B0473A"></rect><text x="483" y="268" text-anchor="middle" font-family="&#39;JetBrains Mono&#39;,monospace" font-size="11" font-weight="600" fill="#FFFFFF">2,2</text>

    
    <text x="52" y="319" font-weight="600" font-size="13" fill="#0E1A2B">L. Verdi</text>
    <rect x="168" y="300" width="50" height="38" fill="#C68A2E"></rect><text x="193" y="324" text-anchor="middle" font-family="&#39;JetBrains Mono&#39;,monospace" font-size="11" font-weight="600" fill="#FFFFFF">2,6</text>
    <rect x="226" y="300" width="50" height="38" fill="#C68A2E"></rect><text x="251" y="324" text-anchor="middle" font-family="&#39;JetBrains Mono&#39;,monospace" font-size="11" font-weight="600" fill="#FFFFFF">3,2</text>
    <rect x="284" y="300" width="50" height="38" fill="#2D5F73"></rect><text x="309" y="324" text-anchor="middle" font-family="&#39;JetBrains Mono&#39;,monospace" font-size="11" font-weight="600" fill="#FFFFFF">4,1</text>
    <rect x="342" y="300" width="50" height="38" fill="#B0473A"></rect><text x="367" y="324" text-anchor="middle" font-family="&#39;JetBrains Mono&#39;,monospace" font-size="11" font-weight="600" fill="#FFFFFF">2,4</text>
    <rect x="400" y="300" width="50" height="38" fill="#4F7A53"></rect><text x="425" y="324" text-anchor="middle" font-family="&#39;JetBrains Mono&#39;,monospace" font-size="11" font-weight="600" fill="#FFFFFF">3,8</text>
    <rect x="458" y="300" width="50" height="38" fill="#4F7A53"></rect><text x="483" y="324" text-anchor="middle" font-family="&#39;JetBrains Mono&#39;,monospace" font-size="11" font-weight="600" fill="#FFFFFF">3,6</text>

    
    <text x="52" y="375" font-weight="600" font-size="13" fill="#0E1A2B">S. Conti</text>
    <rect x="168" y="356" width="50" height="38" fill="#C68A2E"></rect><text x="193" y="380" text-anchor="middle" font-family="&#39;JetBrains Mono&#39;,monospace" font-size="11" font-weight="600" fill="#FFFFFF">3,3</text>
    <rect x="226" y="356" width="50" height="38" fill="#C68A2E"></rect><text x="251" y="380" text-anchor="middle" font-family="&#39;JetBrains Mono&#39;,monospace" font-size="11" font-weight="600" fill="#FFFFFF">2,8</text>
    <rect x="284" y="356" width="50" height="38" fill="#4F7A53"></rect><text x="309" y="380" text-anchor="middle" font-family="&#39;JetBrains Mono&#39;,monospace" font-size="11" font-weight="600" fill="#FFFFFF">3,6</text>
    <rect x="342" y="356" width="50" height="38" fill="#2D5F73"></rect><text x="367" y="380" text-anchor="middle" font-family="&#39;JetBrains Mono&#39;,monospace" font-size="11" font-weight="600" fill="#FFFFFF">4,3</text>
    <rect x="400" y="356" width="50" height="38" fill="#B0473A"></rect><text x="425" y="380" text-anchor="middle" font-family="&#39;JetBrains Mono&#39;,monospace" font-size="11" font-weight="600" fill="#FFFFFF">2,1</text>
    <rect x="458" y="356" width="50" height="38" fill="#4F7A53"></rect><text x="483" y="380" text-anchor="middle" font-family="&#39;JetBrains Mono&#39;,monospace" font-size="11" font-weight="600" fill="#FFFFFF">4,0</text>
  </g>

  
  <line x1="52" y1="414" x2="508" y2="414" stroke="#ECE6D8" stroke-width="1"></line>
  <g font-family="&#39;JetBrains Mono&#39;,monospace" font-size="9" letter-spacing="0.4" fill="#2E3F58">
    <rect x="52" y="430" width="11" height="11" fill="#2D5F73"></rect><text x="68" y="439">ESPERTO</text>
    <rect x="138" y="430" width="11" height="11" fill="#4F7A53"></rect><text x="154" y="439">AVANZATO</text>
    <rect x="236" y="430" width="11" height="11" fill="#C68A2E"></rect><text x="252" y="439">INTERMEDIO</text>
    <rect x="344" y="430" width="11" height="11" fill="#B0473A"></rect><text x="360" y="439">BASE · GAP</text>
  </g>
</svg>