<svg xmlns="http://www.w3.org/2000/svg" viewBox="0 0 560 500" role="img" aria-label="Anteprima del report: punteggio complessivo e competenze">
  
  <defs>
    <filter id="cardShadow" x="-20%" y="-20%" width="140%" height="140%">
      <feDropShadow dx="0" dy="16" stdDeviation="20" flood-color="#0E1A2B" flood-opacity="0.10"></feDropShadow>
    </filter>
  </defs>

  
  <rect x="20" y="14" width="520" height="466" fill="#FFFFFF" stroke="#D9D0BC" stroke-width="1" filter="url(#cardShadow)"></rect>

  
  <text x="56" y="62" font-family="&#39;Space Grotesk&#39;,sans-serif" font-weight="600" font-size="19" letter-spacing="-0.2" fill="#0E1A2B">Marco Bianchi</text>
  <text x="56" y="82" font-family="&#39;JetBrains Mono&#39;,monospace" font-size="10.5" letter-spacing="1.4" fill="#6F7E96">REPORT · 04 GIUGNO 2026</text>

  
  <rect x="396" y="46" width="108" height="30" fill="#F6F2EA" stroke="#D9D0BC" stroke-width="1"></rect>
  <circle cx="414" cy="61" r="7" fill="#0E1A2B"></circle>
  <text x="414" y="64.5" text-anchor="middle" font-family="sans-serif" font-size="8" fill="#CF7556">★</text>
  <text x="428" y="65" font-family="&#39;JetBrains Mono&#39;,monospace" font-size="11" font-weight="600" letter-spacing="0.5" fill="#0E1A2B">ESCO v1.2</text>

  
  <line x1="56" y1="98" x2="504" y2="98" stroke="#ECE6D8" stroke-width="1"></line>

  
  <g>
    <circle cx="100" cy="166" r="40" fill="none" stroke="#ECE6D8" stroke-width="8"></circle>
    <circle cx="100" cy="166" r="40" fill="none" stroke="#2D5F73" stroke-width="8" stroke-dasharray="251.3" stroke-dashoffset="50.3" stroke-linecap="butt" transform="rotate(-90 100 166)"></circle>
    <text x="100" y="172" text-anchor="middle" font-family="&#39;Space Grotesk&#39;,sans-serif" font-weight="300" font-size="30" fill="#0E1A2B">4,0</text>
    <text x="100" y="189" text-anchor="middle" font-family="&#39;JetBrains Mono&#39;,monospace" font-size="10" letter-spacing="0.8" fill="#6F7E96">/ 5,0</text>
  </g>
  <text x="166" y="159" font-family="&#39;Space Grotesk&#39;,sans-serif" font-weight="600" font-size="17" letter-spacing="-0.2" fill="#0E1A2B">Profilo complessivo</text>
  <text x="166" y="179" font-family="&#39;JetBrains Mono&#39;,monospace" font-size="10" letter-spacing="1.2" fill="#6F7E96">LIVELLO AVANZATO · EQF 5–7</text>

  
  <line x1="56" y1="228" x2="504" y2="228" stroke="#ECE6D8" stroke-width="1"></line>

  
  <g font-family="&#39;Space Grotesk&#39;,sans-serif">
    
    <text x="56" y="262" font-weight="500" font-size="13" fill="#0E1A2B">Comunicazione</text>
    <rect x="206" y="254" width="264" height="8" fill="#ECE6D8"></rect>
    <rect x="206" y="254" width="227" height="8" fill="#2D5F73"></rect>
    <text x="504" y="262" text-anchor="end" font-weight="500" font-size="14" fill="#2E3F58">4,3</text>
    
    <text x="56" y="292" font-weight="500" font-size="13" fill="#0E1A2B">Empatia</text>
    <rect x="206" y="284" width="264" height="8" fill="#ECE6D8"></rect>
    <rect x="206" y="284" width="216" height="8" fill="#2D5F73"></rect>
    <text x="504" y="292" text-anchor="end" font-weight="500" font-size="14" fill="#2E3F58">4,1</text>
    
    <text x="56" y="322" font-weight="500" font-size="13" fill="#0E1A2B">Pensiero critico</text>
    <rect x="206" y="314" width="264" height="8" fill="#ECE6D8"></rect>
    <rect x="206" y="314" width="206" height="8" fill="#4F7A53"></rect>
    <text x="504" y="322" text-anchor="end" font-weight="500" font-size="14" fill="#2E3F58">3,9</text>
    
    <text x="56" y="352" font-weight="500" font-size="13" fill="#0E1A2B">Teamwork</text>
    <rect x="206" y="344" width="264" height="8" fill="#ECE6D8"></rect>
    <rect x="206" y="344" width="190" height="8" fill="#4F7A53"></rect>
    <text x="504" y="352" text-anchor="end" font-weight="500" font-size="14" fill="#2E3F58">3,6</text>
    
    <text x="56" y="382" font-weight="500" font-size="13" fill="#0E1A2B">Decisione</text>
    <rect x="206" y="374" width="264" height="8" fill="#ECE6D8"></rect>
    <rect x="206" y="374" width="148" height="8" fill="#C68A2E"></rect>
    <text x="504" y="382" text-anchor="end" font-weight="500" font-size="14" fill="#2E3F58">2,8</text>
  </g>

  
  <g font-family="&#39;JetBrains Mono&#39;,monospace" font-size="10" font-weight="600" letter-spacing="1">
    <rect x="56" y="412" width="74" height="22" fill="#2D5F73"></rect>
    <text x="93" y="427" text-anchor="middle" fill="#FFFFFF">ESPERTO</text>
    <rect x="138" y="412" width="86" height="22" fill="#4F7A53"></rect>
    <text x="181" y="427" text-anchor="middle" fill="#FFFFFF">AVANZATO</text>
    <rect x="232" y="412" width="98" height="22" fill="#C68A2E"></rect>
    <text x="281" y="427" text-anchor="middle" fill="#FFFFFF">INTERMEDIO</text>
  </g>
</svg>