<svg xmlns="http://www.w3.org/2000/svg" viewBox="0 0 520 360" role="img" aria-label="Rete del team: profili connessi su un&#39;unica base di competenze">
  
  
  <g stroke="#D9DEE7" stroke-width="1.3">
    <line x1="90" y1="120" x2="170" y2="80"></line>
    <line x1="90" y1="120" x2="160" y2="200"></line>
    <line x1="170" y1="80" x2="250" y2="150"></line>
    <line x1="160" y1="200" x2="250" y2="150"></line>
    <line x1="250" y1="150" x2="320" y2="90"></line>
    <line x1="250" y1="150" x2="340" y2="210"></line>
    <line x1="320" y1="90" x2="430" y2="140"></line>
    <line x1="340" y1="210" x2="430" y2="140"></line>
    <line x1="340" y1="210" x2="250" y2="280"></line>
    <line x1="340" y1="210" x2="410" y2="270"></line>
    <line x1="160" y1="200" x2="250" y2="280"></line>
    <line x1="430" y1="140" x2="410" y2="270"></line>
  </g>
  
  <g fill="#FBF8F2" stroke="#1B2A40" stroke-width="1.6">
    <circle cx="90" cy="120" r="9"></circle>
    <circle cx="170" cy="80" r="9"></circle>
    <circle cx="160" cy="200" r="9"></circle>
    <circle cx="320" cy="90" r="9"></circle>
    <circle cx="340" cy="210" r="9"></circle>
    <circle cx="250" cy="280" r="9"></circle>
    <circle cx="410" cy="270" r="9"></circle>
  </g>
  <g fill="#2E3F58">
    <circle cx="90" cy="120" r="2.6"></circle>
    <circle cx="170" cy="80" r="2.6"></circle>
    <circle cx="160" cy="200" r="2.6"></circle>
    <circle cx="320" cy="90" r="2.6"></circle>
    <circle cx="340" cy="210" r="2.6"></circle>
    <circle cx="250" cy="280" r="2.6"></circle>
    <circle cx="410" cy="270" r="2.6"></circle>
  </g>
  
  <g>
    <circle cx="250" cy="150" r="15" fill="#CF7556" opacity="0.12"></circle>
    <circle cx="250" cy="150" r="9" fill="#FBF8F2" stroke="#8B3D1F" stroke-width="1.8"></circle>
    <circle cx="250" cy="150" r="3" fill="#CF7556"></circle>
    <circle cx="430" cy="140" r="15" fill="#CF7556" opacity="0.12"></circle>
    <circle cx="430" cy="140" r="9" fill="#FBF8F2" stroke="#8B3D1F" stroke-width="1.8"></circle>
    <circle cx="430" cy="140" r="3" fill="#CF7556"></circle>
  </g>
</svg>